<?xml version="1.0" encoding="UTF-8" standalone="no"?>
<!-- Created with Inkscape (http://www.inkscape.org/) -->

<svg
   version="1.1"
   id="svg1"
   width="480"
   height="480"
   viewBox="0 0 480 480"
   sodipodi:docname="M.svg"
   inkscape:version="1.4.3 (fcd0343856, 2026-01-01)"
   xmlns:inkscape="http://www.inkscape.org/namespaces/inkscape"
   xmlns:sodipodi="http://sodipodi.sourceforge.net/DTD/sodipodi-0.dtd"
   xmlns="http://www.w3.org/2000/svg"
   xmlns:svg="http://www.w3.org/2000/svg">
  <defs
     id="defs1" />
  <sodipodi:namedview
     id="namedview1"
     pagecolor="#ffffff"
     bordercolor="#000000"
     borderopacity="0.25"
     inkscape:showpageshadow="2"
     inkscape:pageopacity="0.0"
     inkscape:pagecheckerboard="0"
     inkscape:deskcolor="#d1d1d1"
     inkscape:zoom="2.4895833"
     inkscape:cx="239.79916"
     inkscape:cy="240"
     inkscape:window-width="2560"
     inkscape:window-height="1403"
     inkscape:window-x="0"
     inkscape:window-y="0"
     inkscape:window-maximized="1"
     inkscape:current-layer="layer-MC0">
    <inkscape:page
       x="0"
       y="0"
       inkscape:label="1"
       id="page1"
       width="480"
       height="480"
       margin="142.828 148.30667 131.66667 139.75333"
       bleed="0" />
  </sodipodi:namedview>
  <g
     id="layer-MC0"
     inkscape:groupmode="layer"
     inkscape:label="Layer 1">
    <path
       id="path1"
       d="m 11.25003,-2.5755145 0.01172,0.9150279 C 10.535186,-0.88090695 9.8115531,-0.33610418 9.0937797,-0.02306833 8.3818656,0.28093763 7.5410453,0.4344456 6.5742484,0.4344456 5.5254203,0.4344456 4.5762016,0.16053923 3.7265922,-0.38426354 2.8828422,-0.93809619 2.2324516,-1.7146659 1.7812797,-2.7199925 1.3271781,-3.7223092 1.1015922,-4.7065662 1.1015922,-5.6697534 c 0,-1.0655259 0.2724609,-2.0708525 0.8203125,-3.0099601 0.5449219,-0.9451274 1.2714844,-1.6524685 2.1796875,-2.1190115 0.9052734,-0.463534 2.0449219,-0.698311 3.421875,-0.698311 1.3125,0 2.3115234,0.225747 2.9999998,0.674231 0.38086,0.264876 0.574219,0.608012 0.574219,1.0233864 0,0.297986 -0.102539,0.5478127 -0.304688,0.7464701 -0.196289,0.1926374 -0.445312,0.2889562 -0.75,0.2889562 -0.4687496,0 -0.9843746,-0.2889562 -1.5468746,-0.8668685 -0.3515625,-0.3611952 -0.6679687,-0.6080122 -0.9492187,-0.7464702 -0.28125,-0.135448 -0.5947266,-0.204677 -0.9375,-0.204677 -0.8378906,0 -1.5322266,0.346145 -2.0859375,1.035426 -0.7734375,0.9722171 -1.1601563,2.1972709 -1.1601563,3.6721513 0,1.5260498 0.3925782,2.7390637 1.1835938,3.6360318 0.7880859,0.899978 1.7109375,1.34846207 2.765625,1.34846207 0.7265625,0 1.3740234,-0.11437847 1.9453125,-0.34915537 0.5683594,-0.2407968 1.2333988,-0.6862709 1.9921878,-1.3364223 z m 7.394531,2.62468521 -0.05859,-0.19263745 c 0,-0.0632092 0.04102,-0.15952788 0.128906,-0.28895616 l 0.832032,-0.16855777 1.171875,-0.21671712 c 0.09375,-0.0481594 0.158203,-0.11136852 0.199218,-0.19263741 0.05273,-0.1203984 0.08203,-0.4815936 0.08203,-1.0835857 0,-3.1935676 -0.02051,-5.0356631 -0.05859,-5.5262866 -0.04102,-0.4966434 -0.125977,-0.8096793 -0.257813,-0.9391076 -0.125976,-0.1354482 -0.46289,-0.2407968 -1.007812,-0.3130358 -0.322266,-0.048159 -0.574219,-0.1083586 -0.761719,-0.1805976 l 0.05859,-0.4213944 c 0.984375,-0.4093546 1.643555,-0.7585101 1.980469,-1.0474661 0.46875,-0.424404 0.867187,-0.978237 1.195312,-1.661498 l 0.480469,0.01204 c 0.06152,0.475574 0.09375,1.51702 0.09375,3.1303583 l -0.02344,0.2407968 c 0,0.057189 0.01172,0.1444781 0.03516,0.2648765 0.351562,-0.6501514 0.796875,-1.2461234 1.335937,-1.7939366 l 0.328125,-0.313035 c 0.123047,-0.150498 0.249024,-0.270897 0.375,-0.361196 0.65625,-0.391294 1.142578,-0.589952 1.464844,-0.589952 0.413086,0 0.75,0.141468 1.007812,0.421395 0.263672,0.273906 0.398438,0.611022 0.398438,1.011346 0,0.3220659 -0.09375,0.5718926 -0.28125,0.7464703 -0.251953,0.2407968 -0.539063,0.3611952 -0.867188,0.3611952 -0.158203,0 -0.457031,-0.078259 -0.902343,-0.2407968 -0.439453,-0.1595279 -0.726563,-0.2407968 -0.867188,-0.2407968 -0.257812,0 -0.439453,0.042139 -0.539062,0.1203984 -0.266602,0.2106972 -0.585938,0.6351016 -0.960938,1.276223 -0.290039,0.4755737 -0.433594,0.9150279 -0.433594,1.3243825 l 0.07031,2.3236891 0.02344,2.7812031 c 0.0293,0.3220658 0.07031,0.529753 0.117188,0.6260717 0.0293,0.066219 0.123047,0.14447811 0.28125,0.24079683 1.007812,0.0812689 1.605469,0.14146812 1.792969,0.1805976 0.131836,0.00903 0.234375,0.0180598 0.304687,0.0240797 0.398438,0.0180598 0.679688,0.072239 0.84375,0.16855777 0.08496,0.0481594 0.128906,0.1203984 0.128906,0.21671712 0,0.0571892 -0.04102,0.13243824 -0.117187,0.22875697 l -1.558594,-0.02407968 -0.597656,-0.01203984 -0.855469,0.01203984 h -1.441406 l -0.773438,0.04815936 z m 26.244141,-7.48878061 -5.648438,0.048159 h -1.066406 c -0.439453,0 -0.878906,0.01806 -1.324219,0.048159 -0.08789,0.2889562 -0.128906,0.4815936 -0.128906,0.5779123 l 0.01172,0.1444781 v 0.1444781 l -0.01172,0.6862709 c 0,0.5779123 0.178711,1.2852529 0.539062,2.1190119 0.357422,0.827739 0.873047,1.4568206 1.546875,1.8902549 0.670899,0.4334342 1.511719,0.6682111 2.519532,0.6983107 0.530273,-0.0301 0.955078,-0.096319 1.277343,-0.1926374 0.319336,-0.1023387 0.767578,-0.3431355 1.347657,-0.7223904 l 1.019531,-0.830749 0.08203,0.5658725 c 0,0.066219 -0.0059,0.1324382 -0.01172,0.2046773 -0.421875,0.5387828 -0.958007,1.0083366 -1.605468,1.40866127 -0.650391,0.40333465 -1.306641,0.69831074 -1.96875,0.89094818 -0.322266,0.078259 -0.84961,0.1203984 -1.582032,0.1203984 -0.665039,0 -1.321289,-0.13845816 -1.96875,-0.40935456 -0.960937,-0.40935457 -1.716797,-1.07154579 -2.261718,-1.98657369 -0.547852,-0.9150278 -0.820313,-2.0257031 -0.820313,-3.3350357 0,-0.4093546 0.07324,-0.9391075 0.222656,-1.5892589 0.155274,-0.6501514 0.436524,-1.3394322 0.84375,-2.0708525 0.272461,-0.4966434 0.603516,-0.905998 0.996094,-1.2280645 0.5625,-0.448484 1.057617,-0.761519 1.488281,-0.939107 0.609375,-0.255847 1.31543,-0.385275 2.121094,-0.385275 0.873047,0 1.587891,0.162538 2.144531,0.481594 0.75,0.427414 1.306641,0.972217 1.675782,1.6374182 0.375,0.6682112 0.5625,1.2762231 0.5625,1.8300557 z M 37.02542,-7.9452832 h 0.667969 c 0.474609,0 1.901367,-0.075249 4.277344,-0.228757 0.375,-0.01505 0.603515,-0.051169 0.691406,-0.1083585 0.164063,-0.1745777 0.246094,-0.3371156 0.246094,-0.4815936 0,-0.2889562 -0.09375,-0.6170419 -0.28125,-0.9872669 -0.1875,-0.3672148 -0.477539,-0.6531618 -0.867188,-0.8548288 -0.383789,-0.207687 -0.832031,-0.313036 -1.347656,-0.313036 -1.095703,0 -1.96875,0.409355 -2.625,1.228064 -0.509766,0.6200517 -0.761719,1.200974 -0.761719,1.7457768 z m 26.223633,6.0319599 c 0.05273,0.1203985 0.08203,0.2106973 0.08203,0.2648765 0,0.1444781 -0.114257,0.3943048 -0.339843,0.74647013 -0.290039,0.47557369 -0.615235,0.81870913 -0.972657,1.03542626 -0.219726,0.1354482 -0.527343,0.20467728 -0.925781,0.20467728 -0.673828,0 -1.180664,-0.20467728 -1.523437,-0.61403185 -0.205078,-0.24681672 -0.348633,-0.68627089 -0.433594,-1.31234262 l -1.582031,1.0956255 c -0.547852,0.32206572 -0.969727,0.52072309 -1.265625,0.60199201 -0.46875,0.12641832 -1.03125,0.19263744 -1.6875,0.19263744 -0.477539,0 -0.855469,-0.14447808 -1.136719,-0.43343425 -0.275391,-0.28895616 -0.410156,-0.65617129 -0.410156,-1.1076653 0,-0.6501514 0.392578,-1.4237111 1.183593,-2.3236892 0.796875,-0.8969681 1.875,-1.6374182 3.234375,-2.2153306 0.960938,-0.4003247 1.546875,-0.6561713 1.757813,-0.7705497 0.02344,-0.3130359 0.03516,-0.6501514 0.03516,-1.0113466 0,-1.1949542 -0.169922,-2.0016235 -0.503906,-2.4200079 -0.328125,-0.4244048 -0.805664,-0.6381118 -1.429688,-0.6381118 -0.65039,0 -1.253906,0.252837 -1.816406,0.7585102 -0.345703,0.3220657 -0.606445,0.9240577 -0.785156,1.805976 -0.05566,0.2407968 -0.164063,0.5026634 -0.328125,0.7825896 -0.398438,0.2648765 -0.723633,0.3973148 -0.972656,0.3973148 -0.205078,0 -0.392578,-0.060199 -0.5625,-0.1805976 -0.09375,-0.063209 -0.140625,-0.1384582 -0.140625,-0.228757 0,-0.2407968 0.260742,-0.7886095 0.785156,-1.6494581 0.521484,-0.8578386 1.177734,-1.4989599 1.96875,-1.9263749 0.796875,-0.433434 1.488281,-0.650151 2.074219,-0.650151 0.811523,0 1.412109,0.07224 1.804687,0.216717 0.398438,0.144478 0.744141,0.403335 1.042969,0.77055 0.304687,0.370225 0.486328,0.7705498 0.550781,1.203984 0.03809,0.2016673 0.05859,0.9360976 0.05859,2.2032908 l -0.04687,2.2394103 0.01172,1.6374182 c 0,0.2167171 -0.0059,0.4033347 -0.01172,0.5538327 -0.0088,0.2648765 -0.01172,0.4665438 -0.01172,0.601992 0,0.3070159 0.08789,0.5538326 0.269531,0.7464701 0.178711,0.1866175 0.389649,0.2769163 0.632813,0.2769163 0.357422,0 0.662109,-0.1745777 0.914062,-0.529753 l 0.175782,-0.2287569 c 0.04687,-0.02408 0.146484,-0.054179 0.304687,-0.096319 z m -4.136719,-0.4093545 c 0.06152,-1.1949542 0.09375,-2.034733 0.09375,-2.5163266 0,-0.2558466 -0.01758,-0.601992 -0.04687,-1.0354263 -0.626953,0.225747 -1.289062,0.5718924 -1.992187,1.0354263 -0.703125,0.4575139 -1.262695,0.9872669 -1.675781,1.5892589 -0.304688,0.4334342 -0.457032,0.8427888 -0.457032,1.2280637 0,0.3611952 0.123047,0.6682111 0.375,0.9150278 0.249024,0.24079685 0.5625,0.36119525 0.9375,0.36119525 0.28711,0 0.638672,-0.10233864 1.054688,-0.31303585 0.544922,-0.2708964 1.116211,-0.6922908 1.710937,-1.2641832 z m 14.487305,-11.5943662 0.433594,0.01204 0.05859,1.336422 -0.03516,1.733737 c 0.178711,0.009 0.292969,0.01204 0.339844,0.01204 0.240234,0 0.706055,-0.01505 1.394531,-0.04816 0.445313,-0.0301 0.867188,-0.04816 1.265625,-0.04816 0.1875,0 0.46875,0.006 0.84375,0.01204 0.02344,0.192638 0.03516,0.346146 0.03516,0.457514 0,0.120398 -0.0293,0.313036 -0.08203,0.5779124 H 77.60745 l -2.179688,0.072239 -1.089844,0.02408 -0.246093,0.02408 c -0.0791,0.2407968 -0.117188,0.5147031 -0.117188,0.8187091 l 0.04687,2.1190119 -0.03516,3.7203106 c 0,0.9722171 0.128906,1.6193585 0.386719,1.9384143 0.240234,0.33109559 0.603515,0.49363343 1.089843,0.49363343 0.249024,0 0.708985,-0.075249 1.382813,-0.22875696 0.210937,-0.0481594 0.486328,-0.19865737 0.832031,-0.45751397 h 0.128906 c 0.08496,0 0.152344,0.0301 0.199219,0.084279 0.05273,0.048159 0.08203,0.1143785 0.08203,0.1926375 l -0.01172,0.0963187 c -0.407227,0.44246413 -0.873047,0.76753981 -1.394532,0.97522706 -0.515625,0.19865736 -1.207031,0.300996 -2.074218,0.300996 -0.609375,0 -1.113282,-0.14146812 -1.511719,-0.42139441 -0.398438,-0.28895616 -0.65625,-0.62607169 -0.773438,-1.01134655 -0.111328,-0.3852749 -0.164062,-1.2220438 -0.164062,-2.5163266 l 0.05859,-3.166478 -0.01172,-1.5290597 v -0.5538327 c 0,-0.2648765 -0.01172,-0.529753 -0.03516,-0.7946294 l -0.234375,-0.01204 -1.160157,0.036119 -0.105468,0.02408 c -0.102539,0 -0.181641,-0.02408 -0.234375,-0.072239 -0.05566,-0.048159 -0.08203,-0.1023387 -0.08203,-0.1685578 0,-0.1113685 0.03516,-0.2046779 0.105469,-0.2769169 0.07031,-0.07224 0.28418,-0.183607 0.644531,-0.337115 0.240235,-0.09632 0.521485,-0.288957 0.84375,-0.577913 0.328125,-0.288956 0.603516,-0.605002 0.832032,-0.951147 0.108398,-0.192637 0.269531,-0.547813 0.480468,-1.071546 0.146485,-0.385275 0.260743,-0.656171 0.339844,-0.818709 z m 12.436524,-3.395235 c 0,-0.304006 0.117187,-0.568882 0.351562,-0.794629 0.240234,-0.231767 0.530273,-0.349156 0.867188,-0.349156 0.351562,0 0.65625,0.129429 0.914062,0.385275 0.263672,0.258857 0.398438,0.529753 0.398438,0.818709 0,0.288956 -0.134766,0.562863 -0.398438,0.818709 -0.257812,0.258857 -0.5625,0.385275 -0.914062,0.385275 -0.345704,0 -0.632813,-0.114378 -0.867188,-0.349155 -0.234375,-0.231767 -0.351562,-0.535773 -0.351562,-0.915028 z m -1.183594,7.296143 0.01172,-0.409354 c 0.609375,-0.174578 0.9375,-0.276917 0.984375,-0.300996 0.333984,-0.150498 0.685546,-0.379255 1.054687,-0.686271 0.375,-0.313036 0.691406,-0.662191 0.949219,-1.047466 0.108398,-0.02408 0.193359,-0.03612 0.257812,-0.03612 l 0.175782,0.01204 c 0.03808,0.457514 0.05859,0.78861 0.05859,0.987267 0,0.04816 -0.01172,0.261866 -0.03516,0.638111 v 0.746471 l 0.02344,4.0574257 -0.04687,4.298223 c -0.0088,0.3461454 0.04687,0.5869422 0.164062,0.7223904 0.123047,0.13845815 0.486328,0.28895615 1.089844,0.45751392 0.375,0.1053486 0.65625,0.19263744 0.84375,0.26487648 0.0293,0.0662191 0.04687,0.1203984 0.04687,0.16855776 0,0.05718924 -0.02344,0.12942829 -0.07031,0.21671713 -0.36914,-0.0090299 -0.84082,-0.03310956 -1.417968,-0.07223904 -0.773438,-0.06320916 -1.289063,-0.09631873 -1.546875,-0.09631873 -0.117188,0 -0.867188,0.02407969 -2.25,0.07223905 -0.28125,0.0090299 -0.556641,0.0300996 -0.820313,0.07223904 -0.04687,0 -0.123047,-0.01805976 -0.222656,-0.04815936 -0.04687,-0.06320916 -0.07031,-0.12039841 -0.07031,-0.16855777 0,-0.12641832 0.08789,-0.23176692 0.269532,-0.31303584 0.03808,-0.0150498 0.515625,-0.12340837 1.429687,-0.32507569 0.304688,-0.0541793 0.503906,-0.14748804 0.597656,-0.27691635 0.155274,-0.1986573 0.234375,-0.5116932 0.234375,-0.9391075 0.02344,-0.7284103 0.03516,-2.711974 0.03516,-5.9476811 0,-0.6501514 -0.03223,-1.053486 -0.09375,-1.2160239 -0.04687,-0.1113685 -0.172852,-0.2407968 -0.375,-0.3852748 -0.19629,-0.1444781 -0.621094,-0.2919662 -1.277344,-0.4454744 z M 96.161163,-11.184 c 1.037109,0.009 1.948242,0.04214 2.730468,0.09632 0.553711,0 0.955078,-0.006 1.207029,-0.02408 0.17871,-0.006 0.29297,-0.01204 0.33985,-0.01204 l 1.58203,0.01204 c 0.21094,0.04214 0.38086,0.06622 0.51562,0.07224 0.0527,0.01806 0.10547,0.06923 0.15235,0.156518 0,0.0903 -0.0293,0.186617 -0.082,0.288956 -0.15821,0.04816 -0.32227,0.07826 -0.49219,0.08428 -0.70313,0.08127 -1.29492,0.189627 -1.76953,0.325076 -0.0703,0.04816 -0.10547,0.09632 -0.10547,0.144478 0,0.096318 0.0469,0.2407964 0.14062,0.4334338 0.0234,0.048159 0.0645,0.1625379 0.12891,0.3371156 l 1.40625,3.3831951 c 0.63281,1.5501294 1.21289,2.8534421 1.74609,3.912948 0.36621,-0.6892808 0.70313,-1.4026413 1.00782,-2.1430915 0.31054,-0.7464701 0.76757,-1.9173446 1.37109,-3.5156334 0.16992,-0.448484 0.33105,-1.0053266 0.48047,-1.6735378 0.0293,-0.1354482 0.0469,-0.2468167 0.0469,-0.3371155 0,-0.1113685 -0.0674,-0.2347769 -0.19922,-0.3732353 -0.12597,-0.135448 -0.33691,-0.246816 -0.63281,-0.337115 -0.0703,-0.006 -0.49805,-0.07525 -1.27734,-0.204678 -0.0703,-0.03913 -0.13477,-0.0903 -0.1875,-0.156517 v -0.120399 c 0,-0.04816 0.003,-0.108358 0.0117,-0.180597 0.22558,-0.02408 0.38964,-0.03612 0.49218,-0.03612 l 1.66407,0.01204 c 0.10839,0 0.375,-0.01505 0.79687,-0.04816 1.5,0 2.39649,0.01806 2.69531,0.04816 0.0527,0.01806 0.10547,0.07224 0.15235,0.168558 0,0.08127 -0.0293,0.174577 -0.082,0.276916 l -0.4336,0.120398 c -0.11718,0.009 -0.20801,0.01806 -0.26953,0.02408 -0.80566,0.07224 -1.30078,0.186618 -1.48828,0.337116 -0.14062,0.105348 -0.36328,0.5869418 -0.66797,1.4447804 -0.14062,0.4274143 -0.34863,0.9631872 -0.62109,1.6133386 l -0.72656,1.7698565 c -0.11133,0.2588565 -0.22266,0.5357729 -0.33985,0.830749 l -2.17969,5.04469302 h -0.42187 c -0.0879,-0.22574701 -0.19336,-0.45751393 -0.31641,-0.69831074 l -1.0664,-2.27552978 -2.519535,-5.8995217 c -0.509766,-1.1467948 -0.817383,-1.7638363 -0.925781,-1.8541353 -0.102539,-0.09632 -0.700196,-0.291966 -1.792969,-0.589952 -0.05273,-0.150498 -0.08203,-0.258857 -0.08203,-0.325076 z m 30.339847,3.7443901 -5.64844,0.048159 h -1.06641 c -0.43945,0 -0.8789,0.01806 -1.32422,0.048159 -0.0879,0.2889562 -0.1289,0.4815936 -0.1289,0.5779123 l 0.0117,0.1444781 v 0.1444781 l -0.0117,0.6862709 c 0,0.5779123 0.17871,1.2852529 0.53906,2.1190119 0.35742,0.827739 0.87305,1.4568206 1.54688,1.8902549 0.67089,0.4334342 1.51171,0.6682111 2.51953,0.6983107 0.53027,-0.0301 0.95507,-0.096319 1.27734,-0.1926374 0.31934,-0.1023387 0.76758,-0.3431355 1.34766,-0.7223904 l 1.01953,-0.830749 0.082,0.5658725 c 0,0.066219 -0.006,0.1324382 -0.0117,0.2046773 -0.42187,0.5387828 -0.95801,1.0083366 -1.60547,1.40866127 -0.65039,0.40333465 -1.30664,0.69831074 -1.96875,0.89094818 -0.32226,0.078259 -0.84961,0.1203984 -1.58203,0.1203984 -0.66504,0 -1.32129,-0.13845816 -1.96875,-0.40935456 -0.96094,-0.40935457 -1.7168,-1.07154579 -2.26172,-1.98657369 -0.54785,-0.9150278 -0.82031,-2.0257031 -0.82031,-3.3350357 0,-0.4093546 0.0732,-0.9391075 0.22266,-1.5892589 0.15527,-0.6501514 0.43652,-1.3394322 0.84375,-2.0708525 0.27246,-0.4966434 0.60351,-0.905998 0.99609,-1.2280645 0.5625,-0.448484 1.05762,-0.761519 1.48828,-0.939107 0.60938,-0.255847 1.31543,-0.385275 2.12109,-0.385275 0.87305,0 1.58789,0.162538 2.14454,0.481594 0.75,0.427414 1.30664,0.972217 1.67578,1.6374182 0.375,0.6682112 0.5625,1.2762231 0.5625,1.8300557 z m -7.86328,-0.5056733 h 0.66796 c 0.47461,0 1.90137,-0.075249 4.27735,-0.228757 0.375,-0.01505 0.60351,-0.051169 0.6914,-0.1083585 0.16407,-0.1745777 0.2461,-0.3371156 0.2461,-0.4815936 0,-0.2889562 -0.0937,-0.6170419 -0.28125,-0.9872669 -0.1875,-0.3672148 -0.47754,-0.6531618 -0.86719,-0.8548288 -0.38379,-0.207687 -0.83203,-0.313036 -1.34766,-0.313036 -1.0957,0 -1.96875,0.409355 -2.625,1.228064 -0.50976,0.6200517 -0.76171,1.200974 -0.76171,1.7457768 z m 16.81347,4.370462 c 0.35156,0.8909482 0.61524,1.4688605 0.79688,1.733737 0.35156,0.529753 0.77636,0.94512745 1.27734,1.24010353 0.49805,0.29798605 1.03711,0.44547409 1.61719,0.44547409 0.53906,0 1.06933,-0.22875696 1.59375,-0.68627089 0.375,-0.34313543 0.5625,-0.74948003 0.5625,-1.21602383 0,-0.608012 -0.22266,-1.1708745 -0.66797,-1.6855777 -0.43945,-0.5056733 -1.27441,-0.9902768 -2.50781,-1.4568206 -1.23633,-0.4635339 -2.0625,-0.9631873 -2.48438,-1.4929402 -0.42187,-0.5207231 -0.63281,-1.1197052 -0.63281,-1.7939362 0,-0.6411215 0.16992,-1.206994 0.51562,-1.697617 0.35157,-0.487614 0.83204,-0.857839 1.44141,-1.107666 0.60938,-0.246817 1.17188,-0.373235 1.6875,-0.373235 0.66211,0 1.25977,0.05418 1.79297,0.156518 0.53027,0.105349 0.9873,0.264877 1.37109,0.481594 0.0762,0.481593 0.14063,1.185924 0.1875,2.1069717 l 0.0234,0.457514 c -0.11719,0.00903 -0.21973,0.01204 -0.30469,0.01204 h -0.19922 c -0.28125,-0.7765697 -0.71191,-1.3966215 -1.28906,-1.8541357 -0.58008,-0.457514 -1.14844,-0.686271 -1.71094,-0.686271 -0.5625,0 -1.01953,0.174578 -1.37109,0.517713 -0.3457,0.346146 -0.51562,0.79463 -0.51562,1.3484626 0,0.4274144 0.14062,0.8006494 0.42187,1.1197052 0.28125,0.3310956 0.94043,0.7073406 1.98047,1.131745 1.03711,0.4274143 1.79297,0.8187091 2.26172,1.1799043 0.47461,0.3611952 0.82617,0.8006494 1.05469,1.3123426 0.22558,0.5147032 0.33984,1.0083366 0.33984,1.4809003 0,0.6501514 -0.2168,1.2581634 -0.64453,1.8180159 -0.42188,0.56286256 -0.95801,0.95716732 -1.60547,1.17990437 -0.6416,0.23176692 -1.21582,0.34915537 -1.72266,0.34915537 -1.19531,0 -2.29394,-0.22273705 -3.29297,-0.66219122 -0.0937,-0.072239 -0.14648,-0.2106972 -0.15234,-0.42139441 0,-0.078259 -0.0117,-0.21671712 -0.0352,-0.40935461 -0.14941,-1.2671931 -0.22265,-2.0166732 -0.22265,-2.2514501 0,-0.1113685 0.0234,-0.1836075 0.0703,-0.2167171 0.0469,-0.03913 0.16699,-0.060199 0.36328,-0.060199 z m 0,0"
       style="fill:#231f20;fill-opacity:1;fill-rule:nonzero;stroke:none"
       aria-label="creatives"
       transform="matrix(1.3333333,0,0,1.2977747,139.75387,325.694)" />
    <path
       id="path2"
       d="M 0,0 H -1.34 -3.167 V 5.344 L 4.629,91.079 5.847,89.714 Z M 4.02,103.132 H 1.096 L -3.045,56.285 -7.675,9.779 -8.527,2.729 -9.38,1.023 -9.989,0 -11.816,-0.455 V -1.706 H 4.751 v 1.251 L 3.167,0.227 2.436,0.796 2.193,4.435 7.431,86.985 26.8,57.877 l 0.853,-0.683 5.36,4.094 z"
       style="fill:#231f20;fill-opacity:1;fill-rule:nonzero;stroke:none"
       transform="matrix(1.3333333,0,0,-1.3333333,168.01347,292.9776)" />
    <path
       id="path3"
       d="m 0,0 5.451,3.411 24.395,-35.988 v -1.279 l -3.472,-2.047 h -1.553 z"
       style="fill:#231f20;fill-opacity:1;fill-rule:nonzero;stroke:none"
       transform="matrix(1.3333333,0,0,-1.3333333,212.0308,227.1416)" />
    <path
       id="path4"
       d="m 0,0 -2.497,2.558 -6.35,84.743 2.218,3.476 0.112,-2.598 L 0,13.361 0.731,0 Z M -5.421,5.97 -32.891,46.335 -10.355,84.2 -4.934,5.97 Z M 6.7,0.455 6.091,1.933 5.116,12.508 l -7.796,92.784 -2.315,-0.455 -7.431,-13.872 -10.963,-19.671 -12.06,-21.149 -22.293,31.951 -26.679,38.774 -4.264,-7.164 v -0.682 L -56.768,64.13 -81.132,46.392 -79.67,44.8 l 1.111,-0.869 0.473,-0.04 24.364,15.634 43.031,-61.344 h 2.241 l -6.29,8.869 -16.811,24.674 -20.831,30.36 -12.182,18.193 -13.903,21.747 -3.523,5.696 2.32,1.666 6.578,-10.461 18.517,-28.768 47.631,-71.976 h 17.177 v 0.909 z"
       style="fill:#231f20;fill-opacity:1;fill-rule:nonzero;stroke:none"
       transform="matrix(1.3333333,0,0,-1.3333333,299.0912,292.826)" />
  </g>
</svg>
